<?xml version="1.0" encoding="UTF-8" standalone="no"?>
<svg
   width="233.1153"
   height="292.35843"
   viewBox="0 0 233.1153 292.35843"
   fill="none"
   version="1.1"
   id="svg12"
   sodipodi:docname="shipyard-vertical-white-trans-bg.svg"
   inkscape:version="1.3.2 (091e20e, 2023-11-25)"
   xmlns:inkscape="http://www.inkscape.org/namespaces/inkscape"
   xmlns:sodipodi="http://sodipodi.sourceforge.net/DTD/sodipodi-0.dtd"
   xmlns="http://www.w3.org/2000/svg"
   xmlns:svg="http://www.w3.org/2000/svg">
  <defs
     id="defs12" />
  <sodipodi:namedview
     id="namedview12"
     pagecolor="#ffffff"
     bordercolor="#000000"
     borderopacity="0.25"
     inkscape:showpageshadow="2"
     inkscape:pageopacity="0.0"
     inkscape:pagecheckerboard="true"
     inkscape:deskcolor="#d1d1d1"
     inkscape:zoom="2.2908275"
     inkscape:cx="79.229011"
     inkscape:cy="140.12404"
     inkscape:window-width="1712"
     inkscape:window-height="1037"
     inkscape:window-x="2"
     inkscape:window-y="45"
     inkscape:window-maximized="0"
     inkscape:current-layer="svg12" />
  <rect
     style="fill:#ffffff;fill-opacity:1;stroke:#ffffff;opacity:0;stroke-opacity:1"
     id="rect12"
     width="232.1153"
     height="291.35843"
     x="0.5"
     y="0.5"
     ry="1.5012107" />
  <path
     d="m 26.230027,274.29377 c 0,-0.738 -0.4097,-1.393 -1.1882,-1.925 -0.8195,-0.533 -1.8029,-0.942 -2.9502,-1.229 -1.1883,-0.287 -2.4585,-0.655 -3.85167,-1.147 -1.39314,-0.45 -2.70433,-0.983 -3.85163,-1.556 -1.18827,-0.573 -2.17166,-1.433 -2.95019,-2.58 -0.81949,-1.147 -1.18826,-2.58 -1.18826,-4.218 0,-2.376 1.02437,-4.424 3.07311,-6.144 2.04874,-1.72 4.75307,-2.58 8.03104,-2.58 4.835,0 8.5638,1.761 11.2271,5.283 l -4.2614,4.096 c -2.0897,-2.294 -4.5072,-3.44 -7.2115,-3.44 -2.86827,0 -4.30238,0.901 -4.30238,2.703 0,0.696 0.36877,1.269 1.18826,1.72 0.77852,0.491 1.76192,0.86 2.95022,1.106 1.1473,0.245 2.4585,0.614 3.8516,1.064 1.3931,0.492 2.6634,0.983 3.8516,1.557 1.1473,0.573 2.1307,1.474 2.9502,2.621 0.7785,1.187 1.1883,2.58 1.1883,4.177 0,2.621 -1.0654,4.792 -3.1141,6.512 -2.0897,1.72 -4.6711,2.58 -7.7442,2.58 -3.27802,0 -6.02333,-0.655 -8.27695,-1.966 -2.29459,-1.31 -3.9335797,-2.989 -4.9989225,-5.037 l 4.6301525,-3.85 c 0.94242,1.556 2.17167,2.744 3.64676,3.604 1.47509,0.901 3.07316,1.311 4.83506,1.311 1.4751,0 2.6224,-0.246 3.3599,-0.737 0.7376,-0.492 1.1063,-1.147 1.1063,-1.925 z"
     fill="#000000"
     id="path1"
     style="stroke:#ffffff;stroke-opacity:1;fill:#ffffff;fill-opacity:1" />
  <path
     d="m 57.417627,282.23877 v -11.467 h -12.7431 v 11.467 h -6.3511 v -28.669 h 6.3511 v 11.263 h 12.7431 v -11.263 h 6.3511 v 28.669 z"
     fill="#000000"
     id="path2"
     style="stroke:#ffffff;stroke-opacity:1;fill:#ffffff;fill-opacity:1" />
  <path
     d="m 70.938427,282.23877 v -28.669 h 6.351 v 28.669 z"
     fill="#000000"
     id="path3"
     style="stroke:#ffffff;stroke-opacity:1;fill:#ffffff;fill-opacity:1" />
  <path
     d="m 90.807927,282.23877 h -6.3511 v -28.669 h 11.8827 c 2.2946,0 4.302403,0.287 5.982303,0.86 1.639,0.574 2.9093,1.352 3.7697,2.335 0.8605,0.983 1.4751,2.048 1.8439,3.112 0.3688,1.106 0.5736,2.294 0.5736,3.564 0,2.744 -0.9833,5.078 -2.9501,6.962 -1.9668,1.884 -5.0399,2.826 -9.219403,2.826 h -5.5316 z m 5.6955,-22.73 h -5.6955 v 7.781 h 5.4497 c 3.769703,0 5.654503,-1.269 5.654503,-3.89 0,-2.581 -1.8029,-3.891 -5.408703,-3.891 z"
     fill="#000000"
     id="path4"
     style="stroke:#ffffff;stroke-opacity:1;fill:#ffffff;fill-opacity:1" />
  <path
     d="m 139.25443,253.56977 -11.637,18.389 v 10.28 h -6.351 v -10.28 l -11.514,-18.389 h 7.58 l 7.212,11.468 7.375,-11.468 z"
     fill="#000000"
     id="path5"
     style="stroke:#ffffff;stroke-opacity:1;fill:#ffffff;fill-opacity:1" />
  <path
     d="m 135.33243,282.23877 12.579,-28.669 h 4.712 l 12.579,28.669 h -6.638 l -2.335,-5.324 h -12.006 l -2.335,5.324 z m 14.873,-19.249 -3.769,8.56 h 7.457 z"
     fill="#000000"
     id="path6"
     style="stroke:#ffffff;stroke-opacity:1;fill:#ffffff;fill-opacity:1" />
  <path
     d="m 175.50243,282.23877 h -6.351 v -28.669 h 11.595 c 2.172,0 4.057,0.287 5.614,0.779 1.557,0.532 2.786,1.269 3.606,2.17 0.819,0.901 1.434,1.884 1.803,2.908 0.368,1.065 0.573,2.212 0.573,3.481 0,1.884 -0.532,3.563 -1.516,5.079 -1.024,1.556 -2.376,2.662 -4.097,3.317 l 7.99,10.935 h -7.662 l -7.007,-9.788 h -4.548 z m 5.122,-22.73 h -5.122 v 7.003 h 5.367 c 1.557,0 2.746,-0.286 3.606,-0.942 0.82,-0.614 1.27,-1.515 1.27,-2.662 0,-1.106 -0.409,-1.966 -1.147,-2.539 -0.737,-0.573 -2.09,-0.86 -3.974,-0.86 z"
     fill="#000000"
     id="path7"
     style="stroke:#ffffff;stroke-opacity:1;fill:#ffffff;fill-opacity:1" />
  <path
     d="m 198.68443,282.23877 v -28.669 h 9.096 c 2.951,0 5.532,0.369 7.745,1.106 2.171,0.737 3.892,1.802 5.121,3.113 1.23,1.31 2.172,2.785 2.746,4.382 0.573,1.638 0.901,3.399 0.901,5.365 0,4.382 -1.434,7.945 -4.261,10.648 -2.868,2.703 -7.13,4.055 -12.866,4.055 z m 9.014,-22.73 h -2.663 v 16.791 h 2.663 c 6.679,0 10.039,-2.907 10.039,-8.764 0,-5.324 -3.36,-8.027 -10.039,-8.027 z"
     fill="#000000"
     id="path8"
     style="stroke:#ffffff;stroke-opacity:1;fill:#ffffff;fill-opacity:1" />
  <path
     d="m 152.66943,9.020366 -0.052,143.895404 72.034,-71.947898 V 9.020366 Z"
     fill="#000000"
     id="path9"
     style="stroke:#ffffff;stroke-opacity:1;fill:#ffffff;fill-opacity:1" />
  <path
     d="m 224.29343,153.32677 -143.964103,-0.053 71.982103,72 h 71.982 z"
     fill="#000000"
     id="path10"
     style="stroke:#ffffff;stroke-opacity:1;fill:#ffffff;fill-opacity:1" />
  <path
     d="m 80.634027,225.27477 0.0521,-143.895598 -72.0342711,71.947598 6.2e-6,71.948 z"
     fill="#000000"
     id="path11"
     style="stroke:#ffffff;stroke-opacity:1;fill:#ffffff;fill-opacity:1" />
  <path
     d="m 9.0103143,80.968372 143.9641157,0.052 -71.981903,-71.999575 -71.9822157,4e-6 z"
     fill="#000000"
     id="path12"
     style="stroke:#ffffff;stroke-opacity:1;fill:#ffffff;fill-opacity:1" />
</svg>
