<?xml version="1.0" encoding="UTF-8" standalone="no"?>
<svg
   width="645.36188"
   height="148.86925"
   viewBox="0 0 645.36188 148.86925"
   fill="none"
   version="1.1"
   id="svg12"
   sodipodi:docname="shipyard-horizontal-white-trans-bg.svg"
   inkscape:version="1.3.2 (091e20e, 2023-11-25)"
   xmlns:inkscape="http://www.inkscape.org/namespaces/inkscape"
   xmlns:sodipodi="http://sodipodi.sourceforge.net/DTD/sodipodi-0.dtd"
   xmlns="http://www.w3.org/2000/svg"
   xmlns:svg="http://www.w3.org/2000/svg">
  <defs
     id="defs12" />
  <sodipodi:namedview
     id="namedview12"
     pagecolor="#ffffff"
     bordercolor="#000000"
     borderopacity="0.25"
     inkscape:showpageshadow="2"
     inkscape:pageopacity="0.0"
     inkscape:pagecheckerboard="true"
     inkscape:deskcolor="#d1d1d1"
     inkscape:zoom="1.5162414"
     inkscape:cx="343.28307"
     inkscape:cy="65.952559"
     inkscape:window-width="1712"
     inkscape:window-height="1037"
     inkscape:window-x="2"
     inkscape:window-y="45"
     inkscape:window-maximized="0"
     inkscape:current-layer="svg12"
     showgrid="false" />
  <rect
     style="opacity:0;fill:#000000;fill-opacity:1;stroke:#ffffff;stroke-opacity:1"
     id="rect12"
     width="644.36188"
     height="147.86925"
     x="0.5"
     y="0.5" />
  <path
     d="m 211.21268,87.37968 c 0,-1.5682 -0.871,-2.9622 -2.526,-4.0949 -1.743,-1.1326 -3.834,-2.0039 -6.273,-2.6138 -2.527,-0.6099 -5.228,-1.394 -8.19,-2.4395 -2.963,-0.9584 -5.751,-2.0911 -8.19,-3.3108 -2.527,-1.2198 -4.618,-3.0495 -6.273,-5.489 -1.743,-2.4395 -2.527,-5.489 -2.527,-8.974 0,-5.0534 2.178,-9.4097 6.534,-13.069 4.357,-3.6593 10.107,-5.489 17.077,-5.489 10.281,0 18.21,3.7465 23.873,11.2393 l -9.061,8.7127 c -4.444,-4.8791 -9.584,-7.3186 -15.334,-7.3186 -6.099,0 -9.149,1.9167 -9.149,5.7503 0,1.4812 0.784,2.7009 2.527,3.6593 1.655,1.0455 3.746,1.8297 6.273,2.3524 2.44,0.5228 5.228,1.3069 8.19,2.2653 2.962,1.0455 5.663,2.0911 8.19,3.3108 2.439,1.2198 4.53,3.1366 6.273,5.5761 1.655,2.5267 2.527,5.489 2.527,8.8869 0,5.5761 -2.266,10.1938 -6.622,13.8531 -4.444,3.6594 -9.932,5.489 -16.467,5.489 -6.97,0 -12.808,-1.394 -17.6,-4.1821 -4.879,-2.788 -8.364,-6.3602 -10.629,-10.7165 l 9.845,-8.1899 c 2.004,3.3108 4.618,5.8375 7.755,7.6671 3.136,1.9168 6.534,2.7881 10.281,2.7881 3.136,0 5.576,-0.5228 7.144,-1.5683 1.568,-1.0455 2.352,-2.4395 2.352,-4.095 z"
     fill="#141414"
     id="path1"
     style="fill:#fefefe;fill-opacity:1" />
  <path
     d="m 277.52868,104.28228 v -24.3954 h -27.096 v 24.3954 h -13.505 v -60.9886 h 13.505 v 23.9598 h 27.096 v -23.9598 h 13.504 v 60.9886 z"
     fill="#141414"
     id="path2"
     style="fill:#fefefe;fill-opacity:1" />
  <path
     d="m 306.27868,104.28228 v -60.9886 h 13.504 v 60.9886 z"
     fill="#141414"
     id="path3"
     style="fill:#fefefe;fill-opacity:1" />
  <path
     d="m 348.52768,104.28228 h -13.505 v -60.9886 h 25.267 c 4.879,0 9.148,0.6099 12.721,1.8297 3.485,1.2198 6.186,2.8752 8.015,4.9662 1.83,2.091 3.137,4.3563 3.921,6.6216 0.784,2.3524 1.22,4.8791 1.22,7.58 0,5.8375 -2.091,10.8037 -6.273,14.8115 -4.182,4.0079 -10.717,6.0118 -19.604,6.0118 h -11.762 z m 12.111,-48.3552 h -12.111 v 16.554 h 11.588 c 8.016,0 12.023,-2.7009 12.023,-8.277 0,-5.489 -3.833,-8.277 -11.5,-8.277 z"
     fill="#141414"
     id="path4"
     style="fill:#fefefe;fill-opacity:1" />
  <path
     d="m 451.54168,43.29368 -24.744,39.1198 v 21.8688 h -13.505 v -21.8688 l -24.483,-39.1198 h 16.119 l 15.334,24.3955 15.683,-24.3955 z"
     fill="#141414"
     id="path5"
     style="fill:#fefefe;fill-opacity:1" />
  <path
     d="m 443.20168,104.28228 26.747,-60.9886 h 10.02 l 26.748,60.9886 h -14.115 l -4.966,-11.3265 h -25.528 l -4.966,11.3265 z m 31.626,-40.9495 -8.015,18.2095 h 15.857 z"
     fill="#141414"
     id="path6"
     style="fill:#fefefe;fill-opacity:1" />
  <path
     d="m 528.61668,104.28228 h -13.505 v -60.9886 h 24.657 c 4.618,0 8.626,0.6099 11.936,1.6554 3.311,1.1327 5.925,2.701 7.668,4.6178 1.742,1.9167 3.049,4.0078 3.833,6.1859 0.784,2.2653 1.22,4.7049 1.22,7.4058 0,4.0078 -1.133,7.58 -3.224,10.8037 -2.178,3.3108 -5.053,5.6632 -8.712,7.0572 l 16.989,23.2628 h -16.292 l -14.899,-20.8232 h -9.671 z m 10.891,-48.3552 h -10.891 v 14.8986 h 11.413 c 3.311,0 5.838,-0.6099 7.668,-2.0039 1.742,-1.3069 2.701,-3.2237 2.701,-5.6632 0,-2.3524 -0.872,-4.1821 -2.44,-5.4019 -1.568,-1.2197 -4.443,-1.8296 -8.451,-1.8296 z"
     fill="#141414"
     id="path7"
     style="fill:#fefefe;fill-opacity:1" />
  <path
     d="m 577.90968,104.28228 v -60.9886 h 19.342 c 6.274,0 11.762,0.7842 16.467,2.3525 4.618,1.5682 8.277,3.8335 10.891,6.6216 2.614,2.788 4.618,5.9246 5.838,9.3225 1.219,3.4851 1.916,7.2315 1.916,11.4136 0,9.3225 -3.049,16.9025 -9.061,22.6529 -6.099,5.7503 -15.16,8.6255 -27.358,8.6255 z m 19.168,-48.3552 h -5.663 v 35.7219 h 5.663 c 14.202,0 21.346,-6.186 21.346,-18.6451 0,-11.3265 -7.144,-17.0768 -21.346,-17.0768 z"
     fill="#141414"
     id="path8"
     style="fill:#fefefe;fill-opacity:1" />
  <path
     d="m 94.737085,12.180955 -0.0297,82.197325 41.128295,-41.0987 V 12.180955 Z"
     fill="#141414"
     id="path9"
     style="fill:#fefefe;fill-opacity:1" />
  <path
     d="m 135.63168,94.61498 -82.197795,-0.0297 41.0987,41.1288 h 41.099095 z"
     fill="#141414"
     id="path10"
     style="fill:#fefefe;fill-opacity:1" />
  <path
     d="m 53.608285,135.71208 0.0297,-82.1972 -41.128308,41.0987 4e-6,41.0985 z"
     fill="#141414"
     id="path11"
     style="fill:#fefefe;fill-opacity:1" />
  <path
     d="m 12.714519,53.28018 82.197266,0.0297 -41.0986,-41.128381 -41.098668,2e-6 z"
     fill="#141414"
     id="path12"
     style="display:inline;fill:#fefefe;fill-opacity:1" />
</svg>
